<svg width="200" height="200" viewBox="0 0 200 200" fill="none" xmlns="http://www.w3.org/2000/svg">
<rect x="1.74846e-05" width="200" height="200" rx="50" fill="url(#paint0_radial_24_40)" style=""/>
<path fill-rule="evenodd" clip-rule="evenodd" d="M57.2632 102.36C67.1811 102.36 73.6348 108.202 73.6348 118.392C73.6348 129.533 66.7056 134.832 57.2632 134.832H56.2442L56.2442 150.999L45.1035 150.999L45.1035 102.36L57.2632 102.36ZM56.2442 125.933H57.3989C60.252 125.933 62.3579 123.555 62.3579 118.46C62.3579 113.637 60.3878 111.259 57.5347 111.259H56.2442L56.2442 125.933Z" fill="white" style="fill:white;fill-opacity:1;"/>
<path d="M87.2886 141.828L97.9536 141.828L97.9536 150.999L76.148 150.999L76.148 102.36L87.2886 102.36L87.2886 141.828Z" fill="white" style="fill:white;fill-opacity:1;"/>
<path fill-rule="evenodd" clip-rule="evenodd" d="M131.104 150.999L119.624 150.999L118.345 141.489L110.565 141.489L109.23 150.999L99.2446 150.999L107.804 102.36L122.613 102.36L131.104 150.999ZM111.803 132.59L117.207 132.59L114.586 113.158L111.803 132.59Z" fill="white" style="fill:white;fill-opacity:1;"/>
<path d="M143.128 119.65L148.359 102.36L158.956 102.36L148.291 133.609L148.291 150.999L137.15 150.999L137.15 133.745L126.485 102.36L137.897 102.36L143.128 119.65Z" fill="white" style="fill:white;fill-opacity:1;"/>
<path d="M131.592 49.001C138.928 49.001 143.547 54.2997 145.178 61.6362L136.143 65.3042C135.26 59.5982 133.766 57.5601 131.592 57.5601C128.807 57.5601 126.769 60.821 126.769 73.9995C126.769 87.1781 128.875 90.439 131.456 90.439C133.92 90.4388 135.658 86.9739 135.96 79.8418L130.233 79.8418L130.233 70.8066L145.789 70.8066L145.789 98.3188L138.86 98.3188L138.152 93.46C135.954 97.3509 133.095 98.998 129.486 98.998C121.334 98.998 115.628 91.7974 115.628 73.9995C115.628 56.2016 122.285 49.001 131.592 49.001Z" fill="white" style="fill:white;fill-opacity:1;"/>
<path fill-rule="evenodd" clip-rule="evenodd" d="M164.47 49.001C173.641 49.001 180.298 56.2016 180.298 73.9995C180.298 91.7974 173.641 98.998 164.47 98.998C155.3 98.998 148.643 91.7974 148.643 73.9995C148.643 56.2017 155.3 49.001 164.47 49.001ZM164.47 57.5601C161.821 57.5602 159.783 60.8212 159.783 73.9995C159.783 87.1779 161.821 90.4389 164.47 90.439C167.12 90.439 169.158 87.0424 169.158 73.8638C169.158 60.6852 167.12 57.5601 164.47 57.5601Z" fill="white" style="fill:white;fill-opacity:1;"/>
<path d="M37.6431 66.9702L42.874 49.6802L53.4712 49.6802L42.8057 80.9287L42.8057 98.3188L31.6651 98.3188L31.6651 81.0645L21 49.6802L32.4126 49.6802L37.6431 66.9702Z" fill="white" style="fill:white;fill-opacity:1;"/>
<path fill-rule="evenodd" clip-rule="evenodd" d="M80.915 98.3188L69.4351 98.3188L68.1558 88.8086L60.3765 88.8086L59.0415 98.3188L49.0557 98.3188L57.6148 49.6802L72.4238 49.6802L80.915 98.3188ZM61.6143 79.9097L67.0176 79.9097L64.3975 60.478L61.6143 79.9097Z" fill="white" style="fill:white;fill-opacity:1;"/>
<path d="M102.381 79.0464L102.381 49.6802L112.367 49.6802L112.367 98.3188L100.887 98.3188L93.2105 68.1582L93.2105 98.3188L83.2246 98.3188L83.2246 49.6802L94.773 49.6802L102.381 79.0464Z" fill="white" style="fill:white;fill-opacity:1;"/>
<defs>
<radialGradient id="paint0_radial_24_40" cx="0" cy="0" r="1" gradientUnits="userSpaceOnUse" gradientTransform="translate(100 400) rotate(-90) scale(400)">
<stop offset="0.5" stop-color="#7300E6" style="stop-color:#7300E6;stop-color:color(display-p3 0.4500 0.0000 0.9000);stop-opacity:1;"/>
<stop offset="0.85" stop-color="#EE33FF" style="stop-color:#EE33FF;stop-color:color(display-p3 0.9333 0.2000 1.0000);stop-opacity:1;"/>
<stop offset="1" stop-color="#FF80AA" style="stop-color:#FF80AA;stop-color:color(display-p3 1.0000 0.5000 0.6667);stop-opacity:1;"/>
</radialGradient>
</defs>
</svg>
